<svg width="148" height="45" viewBox="0 0 148 45" fill="none" xmlns="http://www.w3.org/2000/svg">
<g clip-path="url(#clip0_1_273)" filter="url(#filter0_d_1_273)">
<path d="M26.3941 31.0904C26.2057 31.1632 26.006 31.2021 25.804 31.2056L23.571 31.2747H21.6503C20.074 33.0244 18.1924 34.4757 16.0966 35.5583C14.6028 36.2963 12.9505 36.66 11.2834 36.6177C10.2578 36.5908 9.24276 36.4042 8.27511 36.065C7.39406 35.7638 6.58052 35.2944 5.88007 34.6832C5.23633 34.1319 4.7261 33.4431 4.38751 32.668C4.04883 31.869 3.92906 30.9949 4.0404 30.1347C4.11688 28.8504 4.5716 27.6169 5.34784 26.588C5.95791 25.8301 6.75528 25.2428 7.66189 24.8838C8.48529 24.5776 9.36538 24.452 10.2421 24.5153C10.9297 24.5547 11.6097 24.6785 12.2668 24.8838C12.6783 25.055 13.0232 25.3538 13.2503 25.7359C13.4336 26.0362 13.511 26.3887 13.4702 26.7377C13.4432 26.8883 13.3863 27.0322 13.3029 27.1607C13.2194 27.2892 13.1111 27.3998 12.9842 27.4862C12.8262 27.5719 12.6492 27.6168 12.4693 27.6168C12.2894 27.6168 12.1124 27.5719 11.9545 27.4862C11.3534 27.2054 10.6691 27.1561 10.0338 27.348C9.48967 27.53 9.00833 27.8613 8.64536 28.3038C8.28976 28.7607 8.05505 29.2992 7.96272 29.8698C7.84704 30.4426 7.89105 31.036 8.08999 31.5856C8.31235 32.1604 8.71904 32.6461 9.24702 32.9674C9.9464 33.3755 10.7517 33.5679 11.5611 33.5201C13.3893 33.3973 15.1185 32.6487 16.4553 31.4014C15.7842 31.4014 15.3677 31.1941 15.2057 30.8947C15.1185 30.742 15.0726 30.5694 15.0726 30.3938C15.0726 30.2182 15.1185 30.0456 15.2057 29.8929C15.4441 29.4804 15.7723 29.1263 16.166 28.8565C16.5963 28.5464 17.1054 28.3629 17.6354 28.3268H18.4801C18.8387 28.3268 19.2437 28.3268 19.7065 28.3268C21.4494 26.3662 23.0648 24.297 24.5429 22.1317C26.209 19.7135 27.8288 17.2723 29.4602 14.7735C31.0916 12.2747 32.5842 9.81045 34.0883 7.39227C35.5924 4.97408 37.1082 2.78621 38.5313 0.897721C38.8565 0.459418 39.3358 0.15925 39.8734 0.0571148C40.338 -0.0500452 40.8247 -0.00563487 41.2619 0.183782C41.4586 0.276748 41.6334 0.409905 41.7749 0.574578C41.9165 0.739252 42.0216 0.931752 42.0834 1.13954C42.1478 1.39824 42.1531 1.668 42.0991 1.92904C42.0451 2.19008 41.9329 2.43575 41.771 2.64802C40.5561 4.52499 39.3643 6.58621 38.1726 8.84317C36.9809 11.1001 35.8586 13.3801 34.8751 15.6717C33.8916 17.9632 32.9313 20.1856 32.1908 22.3159C31.4959 24.166 30.92 26.0583 30.4668 27.9814C30.1246 29.2772 29.9687 30.6148 30.004 31.9541C30.085 32.9674 30.4553 33.4626 31.161 33.4626C31.4775 33.4509 31.7901 33.3888 32.0867 33.2783C32.4835 33.1405 32.8702 32.9751 33.2437 32.7832C33.6459 32.5599 34.0324 32.3099 34.4007 32.0347C34.7809 31.7664 35.137 31.4658 35.4652 31.1365L36.9577 29.628C37.3922 29.1625 37.8017 28.6742 38.1842 28.1656C38.2755 28.0172 38.4027 27.8941 38.5544 27.8075C38.7061 27.721 38.8772 27.6739 39.052 27.6704C39.4116 27.6432 39.7719 27.7149 40.0933 27.8777C40.3948 28.0146 40.6399 28.2504 40.7875 28.5456C40.8548 28.694 40.8754 28.8594 40.8465 29.0197C40.8176 29.1801 40.7405 29.3279 40.6255 29.4438L39.1908 31.1595C38.5891 31.885 37.8255 32.7026 36.8767 33.6238C36.2751 34.188 35.7197 34.6717 35.2338 35.0517C34.7719 35.4223 34.2716 35.7427 33.7412 36.0074C33.2538 36.2503 32.7364 36.4284 32.2024 36.5371C31.6035 36.6485 30.9951 36.7024 30.3858 36.6983C29.7634 36.7509 29.138 36.6355 28.576 36.3638C28.0139 36.0923 27.536 35.6747 27.1924 35.1553C26.5246 33.91 26.2466 32.4944 26.3941 31.0904ZM26.7643 28.1771C27.3016 25.8475 28.0769 23.5787 29.0784 21.4062C28.2338 22.742 27.4007 23.9856 26.6024 25.1141C25.804 26.2426 25.0404 27.2789 24.2883 28.2347C24.7858 28.2347 25.2486 28.1771 25.6767 28.1771H26.7643ZM41.5048 21.0377C41.5932 20.8699 41.7219 20.7265 41.8793 20.6201C42.0367 20.5136 42.218 20.4475 42.4073 20.4274C42.8532 20.3293 43.3152 20.3293 43.761 20.4274C44.1731 20.5142 44.5509 20.7183 44.8486 21.0147C44.9881 21.1495 45.0794 21.3261 45.1086 21.5173C45.1379 21.7086 45.1034 21.9041 45.0106 22.0741L44.6982 22.7074L44.9065 22.5462C45.6608 21.8474 46.5244 21.2756 47.4635 20.8535C48.0344 20.5898 48.6645 20.4787 49.2916 20.5311C49.7816 20.5921 50.2354 20.82 50.5759 21.1759C50.9358 21.5282 51.2296 21.9415 51.4437 22.3965C51.7581 23.1522 51.7581 24.0014 51.4437 24.7571C51.0741 25.7711 50.6213 26.7533 50.09 27.6935C49.6966 28.4765 49.2916 29.202 48.8635 29.8929C48.4354 30.5838 48.0189 31.2977 47.5908 32.0347C47.427 32.2615 47.3271 32.528 47.3015 32.8062C47.3015 32.9329 47.4057 32.9674 47.5677 32.9329C47.7615 32.8787 47.948 32.8014 48.123 32.7026C48.3241 32.5804 48.5173 32.4458 48.7015 32.2995C49.5227 31.67 50.2962 30.9811 51.0156 30.2383C51.67 29.5847 52.2844 28.8926 52.8553 28.1656C52.9479 28.0081 53.0794 27.8768 53.2373 27.7841C53.3954 27.6913 53.5745 27.6404 53.7577 27.6359C54.1062 27.6084 54.4554 27.6804 54.7644 27.8432C55.0546 27.9879 55.29 28.2221 55.4354 28.5111C55.5032 28.6557 55.5293 28.8162 55.5109 28.9748C55.4926 29.1333 55.4303 29.2837 55.3313 29.4092C55.1462 29.6165 54.9148 29.9274 54.6139 30.3304C54.3131 30.7335 53.966 31.1711 53.5726 31.6317C53.1792 32.0923 52.7511 32.5644 52.2652 33.0595C51.7792 33.5547 51.3048 34.0153 50.8073 34.4414C50.0466 35.1549 49.1755 35.7421 48.2272 36.1801C47.5933 36.4753 46.9021 36.6285 46.2024 36.6292C45.6738 36.6348 45.1594 36.46 44.7445 36.1341C44.3576 35.8227 44.0453 35.4294 43.8305 34.9826C43.4953 34.259 43.4497 33.4354 43.7032 32.6795C44.0399 31.6416 44.4778 30.6388 45.0106 29.6856C45.1495 29.4092 45.323 29.0753 45.5429 28.6838C45.7627 28.2923 45.971 27.9007 46.2024 27.5323C46.4338 27.1638 46.642 26.7377 46.8387 26.3808C47.004 26.0622 47.1894 25.7546 47.3941 25.4595C47.6139 25.068 47.6949 24.8147 47.6602 24.688C47.6255 24.5614 47.5098 24.5268 47.3247 24.5614C47.0924 24.6105 46.867 24.6879 46.6536 24.7917C46.4106 24.9183 46.1792 25.0565 45.9594 25.1947C45.3924 25.5862 44.8024 26.0123 44.2123 26.4844C43.6328 26.9396 43.0804 27.4279 42.5577 27.9468C42.1991 28.7874 41.8404 29.6395 41.4701 30.4917L40.4288 32.8753C40.1048 33.6123 39.8387 34.2456 39.6073 34.7753C39.3759 35.305 39.2024 35.6735 39.0982 35.9268C38.9891 36.1606 38.8283 36.3669 38.628 36.5303C38.4277 36.6938 38.193 36.8103 37.9412 36.8711C37.4482 37.0272 36.9186 37.0272 36.4255 36.8711C35.9591 36.7243 35.5688 36.402 35.3379 35.9729C35.2139 35.708 35.1584 35.4165 35.1766 35.1249C35.1948 34.8332 35.2861 34.5508 35.442 34.3032C35.7544 33.6007 36.1941 32.668 36.7379 31.528C37.2817 30.388 37.8949 29.225 38.4503 27.9238L40.1511 24.2389C40.6371 22.8917 41.1115 21.8783 41.5048 21.0262V21.0377ZM61.7644 19.7135L57.3445 27.4286C56.9627 28.1311 56.5809 28.8104 56.1875 29.4438C55.8451 30.0069 55.5398 30.5916 55.2734 31.1941C55.0786 31.6296 54.92 32.0802 54.7991 32.5414C54.7065 32.9098 54.7528 33.1632 54.9379 33.3014C55.0384 33.3949 55.164 33.4576 55.2994 33.4821C55.4347 33.5066 55.5744 33.4918 55.7015 33.4395C56.0823 33.331 56.442 33.1596 56.766 32.9329C57.1362 32.6911 57.5181 32.4032 57.923 32.0923C58.328 31.7814 58.6635 31.4589 58.9875 31.1365L60.4801 29.628C60.9145 29.1625 61.3239 28.6742 61.7065 28.1656C61.7978 28.0172 61.9251 27.8941 62.0767 27.8075C62.2284 27.721 62.3996 27.6739 62.5743 27.6704C62.9339 27.6432 63.2942 27.7149 63.6156 27.8777C63.9171 28.0146 64.1622 28.2504 64.3098 28.5456C64.3771 28.694 64.3977 28.8594 64.3688 29.0197C64.3399 29.1801 64.2628 29.3279 64.1478 29.4438C63.7891 29.9044 63.3148 30.4801 62.7131 31.1941C62.1115 31.908 61.3478 32.7026 60.3991 33.6238C59.7974 34.188 59.242 34.6717 58.7561 35.0517C58.2942 35.4223 57.7939 35.7427 57.2635 36.0074C56.7761 36.2503 56.2588 36.4284 55.7247 36.5371C55.145 36.647 54.5561 36.701 53.966 36.6983C52.1495 36.6983 51.0966 35.9614 50.7958 34.4989C50.4949 33.0365 51.0734 31.0444 52.5313 28.6492C52.7048 28.3268 52.971 27.8547 53.3296 27.2214C53.6883 26.588 54.0933 25.8626 54.5792 25.045L56.0949 22.4541C56.6272 21.5329 57.1362 20.6347 57.6338 19.748C57.3343 19.7851 57.033 19.8043 56.7313 19.8056H55.771C55.0305 19.8056 54.5445 19.6559 54.3363 19.3565C54.2325 19.2055 54.1722 19.029 54.162 18.8464C54.1518 18.6636 54.1921 18.4817 54.2784 18.3201C54.5016 17.8906 54.8324 17.5257 55.2387 17.2608C55.6936 16.9478 56.2257 16.7647 56.7776 16.7311H57.9346C58.3974 16.7311 58.9065 16.7311 59.4734 16.7311L60.6305 14.8195C60.8953 14.3415 61.3343 13.983 61.8569 13.8177C62.3088 13.6763 62.7934 13.6763 63.2453 13.8177C63.6336 13.9305 63.9644 14.1856 64.171 14.5317C64.2621 14.7127 64.3038 14.9145 64.2916 15.1167C64.2794 15.3188 64.2139 15.5142 64.1015 15.6832L63.5693 16.5814H65.0503C65.4355 16.6108 65.8223 16.6108 66.2073 16.5814C66.7396 16.5814 67.052 16.7426 67.1677 17.042C67.2183 17.2079 67.2342 17.3825 67.2143 17.5548C67.1944 17.7271 67.1392 17.8936 67.052 18.0438C66.8497 18.4529 66.5617 18.8141 66.2073 19.1032C65.8561 19.4228 65.399 19.6032 64.923 19.6098L61.7644 19.7135ZM78.5875 28.1771C78.6916 28.0278 78.8297 27.905 78.9906 27.8189C79.1514 27.7329 79.3305 27.6859 79.5131 27.682C79.8726 27.6571 80.2322 27.7286 80.5544 27.8892C80.851 28.0333 81.094 28.2672 81.2486 28.5571C81.3145 28.7059 81.3342 28.8708 81.3054 29.0307C81.2764 29.1908 81.2004 29.3385 81.0867 29.4553C80.9015 29.6626 80.6701 29.9735 80.3693 30.3765C80.0685 30.7795 79.7098 31.2171 79.3048 31.6777L78.0553 33.0941C77.6032 33.5808 77.1242 34.0421 76.6206 34.4759C75.8656 35.1859 75.0026 35.7727 74.0635 36.2147C73.4507 36.5087 72.7768 36.6546 72.0966 36.6408C71.5734 36.6234 71.07 36.4375 70.6619 36.1111C70.267 35.783 69.9272 35.3942 69.6553 34.9595L67.8156 36.1111C66.9002 36.5588 65.8832 36.7612 64.8652 36.6983C64.0227 36.717 63.1922 36.4973 62.4701 36.065C61.7907 35.6372 61.2674 35.0034 60.9776 34.2571C60.6423 33.3725 60.5311 32.4194 60.6536 31.482C60.8152 30.2395 61.2244 29.0416 61.8569 27.9583C62.4915 26.742 63.3068 25.6279 64.2751 24.6535C65.1389 23.7872 66.093 23.0152 67.1214 22.3504C67.9932 21.7902 68.9344 21.3452 69.9214 21.0262C70.667 20.7695 71.447 20.6259 72.2354 20.6001C72.6288 20.5959 73.0201 20.6582 73.3924 20.7844C73.7149 20.9038 74.025 21.0542 74.3181 21.2335C74.6091 21.4115 74.8771 21.6242 75.1164 21.8668C75.3446 21.4394 75.7239 21.1111 76.1809 20.9456C76.6443 20.7501 77.1498 20.6748 77.6503 20.7268C78.0423 20.76 78.4066 20.9412 78.6685 21.2335C78.8883 21.5214 78.8652 21.9014 78.5875 22.385L77.523 24.4808C77.0949 25.3098 76.6553 26.162 76.1925 27.0256L74.885 29.4553C74.5852 30.0165 74.257 30.5624 73.9015 31.0904C73.7315 31.3285 73.646 31.6162 73.6586 31.908C73.6586 32.0692 73.8668 32.1383 74.1098 32.1268C74.4136 32.0897 74.7057 31.9876 74.966 31.8274C75.3209 31.6303 75.6445 31.3819 75.9263 31.0904C76.528 30.4571 77.0139 29.9389 77.3842 29.582C77.825 29.1447 78.2277 28.6709 78.5875 28.1656V28.1771ZM70.766 29.6511C71.2707 29.0285 71.7053 28.3527 72.0619 27.6359C72.3677 27.0256 72.6193 26.3898 72.8139 25.7359C72.966 25.2323 73.0286 24.7063 72.9991 24.1814C72.9957 23.9926 72.9505 23.807 72.8663 23.6377C72.7823 23.4685 72.6617 23.3199 72.5131 23.2026C72.3549 23.0975 72.1764 23.027 71.9891 22.9952C71.8017 22.9634 71.6097 22.9713 71.4255 23.0183C70.9145 23.1347 70.4285 23.3414 69.9908 23.6286C69.4182 23.9978 68.8834 24.422 68.3941 24.8953C67.8139 25.4609 67.2727 26.0649 66.7743 26.7032C66.2727 27.3595 65.8276 28.0567 65.4437 28.7874C65.118 29.3834 64.8581 30.0127 64.6685 30.6644C64.5185 31.1643 64.4636 31.6875 64.5065 32.2074C64.5193 32.3966 64.5712 32.5811 64.6588 32.7495C64.7463 32.9179 64.8678 33.0666 65.0156 33.1862C65.1632 33.2948 65.3331 33.3696 65.513 33.4055C65.693 33.4413 65.8787 33.4371 66.0569 33.3935C66.5743 33.2925 67.0686 33.0973 67.5148 32.8177C68.1016 32.454 68.6449 32.0251 69.1346 31.5395C69.7315 30.9574 70.2773 30.3256 70.766 29.6511ZM78.5875 28.1656C79.4253 27.2041 80.1984 26.1886 80.9015 25.1256C81.7115 23.905 82.4635 22.8226 83.1346 21.7632C82.6847 21.1873 82.3508 20.5305 82.1511 19.8286C81.9193 19.0821 81.7946 18.3068 81.7809 17.5256C81.7576 16.7817 81.8554 16.039 82.0701 15.3262C82.2761 14.6686 82.68 14.0897 83.2272 13.668C83.8515 13.1264 84.6346 12.7992 85.4602 12.7353C86.108 12.7059 86.746 12.9013 87.2652 13.288C87.7738 13.7299 88.1334 14.3169 88.2949 14.9692C88.5281 15.6748 88.5759 16.428 88.4338 17.1571C88.3308 17.7087 88.1517 18.2435 87.9015 18.7462C87.6123 19.3565 87.2767 20.0014 86.8949 20.7153C87.3675 20.8194 87.8571 20.8194 88.3296 20.7153C88.8046 20.6007 89.3027 20.6248 89.7644 20.7844C90.1228 20.9172 90.4359 21.1488 90.6668 21.4523C90.8784 21.7129 90.993 22.0384 90.9908 22.3735C90.9947 22.5262 90.9681 22.6781 90.9126 22.8204C90.8569 22.9627 90.7734 23.0927 90.6668 23.2026C90.528 23.3407 90.2387 23.6632 89.8222 24.1468C89.4057 24.6304 88.9081 25.2408 88.3528 25.9201C87.7974 26.5995 87.1958 27.348 86.6751 28.1195C86.1512 28.835 85.6646 29.5768 85.2172 30.342C84.8538 30.9398 84.5515 31.5725 84.3148 32.2304C84.1181 32.7717 84.1412 33.1401 84.3842 33.3129C84.6206 33.4888 84.9043 33.5906 85.1991 33.6049C85.4939 33.6193 85.7863 33.5457 86.0387 33.3935C86.8392 33.0629 87.5904 32.6251 88.2718 32.0923C89.0895 31.4959 89.8628 30.8417 90.5858 30.1347C91.2272 29.5276 91.83 28.8815 92.3908 28.2001C92.5092 28.067 92.653 27.9587 92.8139 27.8815C92.9749 27.8045 93.1496 27.76 93.328 27.7511C93.6735 27.7327 94.0183 27.796 94.3346 27.9353C94.6233 28.0713 94.859 28.2978 95.0057 28.5801C95.0715 28.7289 95.0912 28.8938 95.0624 29.0538C95.0334 29.2138 94.9574 29.3616 94.8437 29.4783C94.1381 30.4052 93.3647 31.279 92.5296 32.0923C91.5525 33.1096 90.4662 34.017 89.29 34.7983C88.1745 35.5594 86.9441 36.1386 85.6453 36.5141C85.0754 36.6965 84.4744 36.7629 83.8781 36.7095C83.2818 36.6561 82.7023 36.4839 82.1743 36.2032C81.7448 36.0118 81.3751 35.7086 81.1042 35.3256C80.8334 34.9425 80.6714 34.4939 80.6354 34.0268C80.5409 32.9322 80.7238 31.8316 81.1677 30.8256C81.6702 29.5942 82.3314 28.4329 83.1346 27.3711C83.9255 26.2676 84.8547 25.2692 85.8999 24.4001C86.0819 24.2666 86.2353 24.0982 86.3511 23.905C86.3511 23.8129 86.004 23.6286 85.2635 23.3408C84.3726 24.7226 83.5164 25.9892 82.6834 27.1523C81.8503 28.3153 81.2834 29.0983 81.0057 29.4553C80.8937 29.6148 80.7472 29.7472 80.577 29.8428C80.4068 29.9385 80.2173 29.9949 80.0222 30.008C79.6765 30.0384 79.3305 29.9533 79.0387 29.7662C78.7616 29.6012 78.5463 29.3504 78.4255 29.0523C78.3666 28.9042 78.3505 28.7426 78.3791 28.5859C78.4077 28.4292 78.4799 28.2835 78.5875 28.1656ZM85.4024 15.4068C85.2702 15.4027 85.1391 15.4321 85.0217 15.4927C84.9043 15.5532 84.8043 15.6425 84.7313 15.7523C84.5602 16.0243 84.4534 16.3314 84.4189 16.6504C84.3605 17.0321 84.3605 17.4204 84.4189 17.802C84.488 18.2308 84.6329 18.6441 84.847 19.0226C85.0553 18.5965 85.252 18.1704 85.4255 17.7444C85.5888 17.3733 85.7166 16.9877 85.8073 16.5929C85.8776 16.3053 85.8776 16.0053 85.8073 15.7177C85.7808 15.6303 85.7276 15.5534 85.6549 15.4977C85.5824 15.4419 85.494 15.4102 85.4024 15.4068ZM101.3 19.702L96.8801 27.4286C96.4867 28.1311 96.1049 28.8104 95.723 29.4438C95.3885 30.0094 95.0872 30.5938 94.8206 31.1941C94.6206 31.6275 94.4619 32.0786 94.3462 32.5414C94.2536 32.9098 94.3462 33.1632 94.4734 33.3014C94.5765 33.3946 94.7039 33.457 94.841 33.4816C94.9783 33.506 95.1195 33.4914 95.2486 33.4395C95.6294 33.331 95.9891 33.1596 96.3131 32.9329C96.6834 32.6911 97.0652 32.4032 97.4701 32.0923C97.8751 31.7814 98.2106 31.4589 98.5346 31.1365C99.171 30.5032 99.6916 29.985 100.016 29.628C100.438 29.1641 100.832 28.6757 101.196 28.1656C101.29 28.0047 101.426 27.8713 101.588 27.7785C101.75 27.6855 101.934 27.6364 102.121 27.6359C102.481 27.611 102.84 27.6825 103.163 27.8432C103.459 27.9872 103.702 28.2211 103.857 28.5111C103.923 28.6598 103.942 28.8247 103.914 28.9847C103.885 29.1447 103.809 29.2925 103.695 29.4092C103.336 29.8698 102.862 30.4456 102.26 31.1595C101.659 31.8735 100.895 32.668 99.9462 33.5892C99.3445 34.1535 98.7891 34.6371 98.2916 35.0171C97.8319 35.385 97.3357 35.7053 96.8106 35.9729C96.3192 36.2158 95.798 36.3939 95.2602 36.5026C94.6807 36.613 94.0916 36.667 93.5015 36.6638C91.6966 36.6638 90.6437 35.9268 90.3429 34.4644C90.042 33.002 90.6206 31.0098 92.0668 28.6147C92.252 28.2923 92.5181 27.8201 92.8652 27.1868L94.1148 25.0104C94.6007 24.2044 95.0982 23.3408 95.6305 22.4195C96.1627 21.4983 96.6834 20.6001 97.1809 19.7135C96.8816 19.7506 96.5802 19.7698 96.2784 19.7711H95.3181C94.566 19.7711 94.0916 19.6214 93.8834 19.322C93.7859 19.1665 93.7342 18.987 93.7342 18.8038C93.7342 18.6206 93.7859 18.4411 93.8834 18.2856C94.103 17.8537 94.4346 17.4879 94.8437 17.2262C95.2985 16.9132 95.8306 16.7301 96.3825 16.6965H97.5396C98.0024 16.6965 98.5115 16.6965 99.0784 16.6965L100.235 14.785C100.497 14.3345 100.911 13.9916 101.404 13.8177C101.856 13.6763 102.341 13.6763 102.792 13.8177C103.177 13.9374 103.506 14.1908 103.718 14.5317C103.808 14.7137 103.847 14.916 103.833 15.1182C103.819 15.3204 103.751 15.5153 103.637 15.6832L103.105 16.5814H104.597C104.983 16.6108 105.369 16.6108 105.754 16.5814C106.287 16.5814 106.599 16.7426 106.703 17.042C106.756 17.2071 106.774 17.3813 106.757 17.5537C106.739 17.7262 106.685 17.893 106.599 18.0438C106.393 18.4505 106.106 18.811 105.754 19.1032C105.389 19.4183 104.919 19.5867 104.435 19.5753L101.3 19.702ZM110.14 28.1656C110.231 28.0172 110.358 27.8941 110.51 27.8075C110.661 27.721 110.833 27.6739 111.007 27.6704C111.367 27.6432 111.727 27.7149 112.049 27.8777C112.35 28.0146 112.595 28.2504 112.743 28.5456C112.81 28.694 112.831 28.8594 112.802 29.0197C112.773 29.1801 112.696 29.3279 112.581 29.4438C112.222 29.9044 111.759 30.4801 111.169 31.1941C110.445 32.0468 109.672 32.858 108.855 33.6238C108.254 34.188 107.698 34.6717 107.212 35.0517C106.75 35.4223 106.25 35.7427 105.72 36.0074C105.232 36.2503 104.715 36.4284 104.181 36.5371C103.601 36.647 103.012 36.701 102.422 36.6983C100.606 36.6983 99.5528 35.9614 99.252 34.4989C98.9511 33.0365 99.5296 31.0444 100.987 28.6492C101.3 28.1195 101.635 27.4977 101.994 26.8759C102.353 26.2541 102.711 25.5747 103.082 24.9414L104.146 23.145C104.482 22.5808 104.783 22.0971 105.026 21.7056C105.297 21.2385 105.735 20.8895 106.252 20.7268C106.692 20.5882 107.165 20.5882 107.606 20.7268C107.991 20.8519 108.321 21.1037 108.543 21.4408C108.636 21.6236 108.675 21.8293 108.655 22.0334C108.634 22.2375 108.555 22.4315 108.427 22.5923C108.045 23.2717 107.594 24.0547 107.097 24.9529L105.824 27.4286C105.442 28.1311 105.06 28.8104 104.667 29.4438C104.324 30.0069 104.019 30.5916 103.753 31.1941C103.558 31.6296 103.399 32.0802 103.278 32.5414C103.186 32.9098 103.232 33.1632 103.417 33.3014C103.518 33.3949 103.643 33.4576 103.779 33.4821C103.914 33.5066 104.054 33.4918 104.181 33.4395C104.591 33.3329 104.982 33.1618 105.338 32.9329C105.738 32.6725 106.124 32.3919 106.495 32.0923C106.877 31.7698 107.235 31.4589 107.559 31.1365L108.994 29.628C109.401 29.1605 109.783 28.6724 110.14 28.1656ZM112.315 16.3626C112.12 16.6947 111.882 17.0004 111.609 17.2723C111.392 17.4946 111.164 17.7059 110.926 17.9056C110.48 18.1775 109.991 18.3722 109.48 18.4814C109.073 18.5896 108.646 18.6092 108.23 18.5389C108.08 18.5179 107.938 18.4578 107.818 18.3648C107.698 18.2719 107.605 18.1493 107.548 18.0092C107.421 17.7329 107.548 17.3414 107.837 16.8577C107.981 16.5772 108.139 16.3043 108.311 16.0401C108.531 15.7062 108.716 15.3953 108.902 15.1074C109.029 14.9053 109.198 14.7323 109.398 14.5993C109.597 14.4664 109.822 14.3767 110.059 14.3359C110.521 14.2514 110.997 14.279 111.447 14.4165C111.844 14.5436 112.181 14.8095 112.396 15.165C112.494 15.3527 112.539 15.5639 112.524 15.7751C112.51 15.9864 112.438 16.1896 112.315 16.3626ZM110.568 27.1638C111.199 26.0347 111.977 24.9932 112.882 24.0662C113.741 23.2193 114.706 22.4841 115.751 21.8783C116.668 21.3373 117.682 20.9776 118.736 20.8189C119.674 20.6786 120.632 20.7695 121.525 21.0838C121.853 21.1804 122.148 21.3644 122.379 21.6161C122.609 21.8678 122.766 22.1776 122.832 22.5117C122.91 23.2054 122.807 23.9075 122.531 24.5498C122.257 25.2967 121.866 25.996 121.374 26.6226C120.942 27.1702 120.457 27.6754 119.928 28.1311C119.612 28.4162 119.197 28.5689 118.771 28.5571C118.391 28.5305 118.028 28.39 117.73 28.1541C117.463 27.9412 117.263 27.6578 117.151 27.3365C117.096 27.1994 117.086 27.0482 117.124 26.9052C117.161 26.7621 117.244 26.6348 117.359 26.542L118.262 25.6438C118.59 25.3195 118.895 24.9731 119.176 24.6074C119.375 24.3612 119.518 24.0742 119.592 23.7668C119.592 23.5365 119.477 23.4214 119.118 23.4214C118.682 23.4435 118.259 23.5784 117.892 23.8129C117.366 24.1347 116.884 24.5216 116.457 24.9644C115.917 25.4819 115.418 26.0401 114.964 26.6341C114.451 27.2839 113.991 27.9731 113.587 28.6953C113.1 29.4518 112.865 30.3427 112.916 31.2401C112.946 31.5749 113.044 31.9001 113.205 32.1953C113.366 32.4906 113.587 32.7495 113.854 32.9559C114.461 33.3329 115.181 33.4877 115.89 33.3935C116.954 33.2738 117.973 32.9027 118.864 32.3111C119.323 32.0355 119.767 31.7356 120.194 31.4129C120.657 31.0559 121.097 30.6874 121.525 30.2614C121.953 29.8353 122.346 29.4898 122.682 29.1098C123.003 28.7834 123.305 28.4372 123.584 28.0735C123.676 27.9274 123.801 27.8059 123.95 27.7195C124.099 27.6331 124.268 27.5847 124.441 27.5783C124.778 27.5559 125.117 27.6193 125.424 27.7626C125.718 27.8961 125.956 28.1285 126.095 28.4189C126.164 28.5699 126.19 28.7369 126.169 28.9015C126.149 29.0662 126.083 29.222 125.979 29.3517C125.719 29.7284 125.437 30.0899 125.135 30.4341C124.776 30.8371 124.371 31.2747 123.908 31.7353C123.445 32.1959 122.96 32.645 122.45 33.1056C121.941 33.5662 121.409 33.9923 120.877 34.3838C119.937 35.1429 118.862 35.7174 117.707 36.0765C116.716 36.3751 115.687 36.5264 114.652 36.5256C113.777 36.5263 112.909 36.3622 112.095 36.042C111.452 35.8136 110.885 35.4155 110.452 34.8904C110.018 34.3574 109.717 33.7302 109.573 33.0595C109.426 32.4141 109.375 31.7506 109.422 31.0904C109.469 30.3919 109.594 29.7007 109.792 29.0292C109.976 28.3793 110.237 27.7531 110.568 27.1638ZM140.465 28.1656C140.569 28.0162 140.707 27.8935 140.868 27.8074C141.029 27.7213 141.208 27.6744 141.391 27.6704C141.751 27.6444 142.111 27.716 142.432 27.8777C142.733 28.0146 142.978 28.2504 143.126 28.5456C143.192 28.6944 143.212 28.8593 143.183 29.0192C143.154 29.1793 143.078 29.327 142.964 29.4438C142.791 29.6511 142.548 29.962 142.247 30.365C141.946 30.768 141.588 31.2056 141.183 31.6662C140.778 32.1268 140.338 32.5989 139.875 33.0941C139.423 33.5808 138.944 34.0421 138.441 34.4759C137.692 35.184 136.837 35.7707 135.907 36.2147C135.293 36.5087 134.62 36.6546 133.94 36.6408C133.417 36.6234 132.913 36.4375 132.505 36.1111C132.11 35.783 131.77 35.3942 131.498 34.9595L129.659 36.1111C128.743 36.5588 127.726 36.7612 126.708 36.6983C125.866 36.717 125.035 36.4973 124.313 36.065C123.636 35.6342 123.113 35.0013 122.821 34.2571C122.49 33.3716 122.382 32.4185 122.508 31.482C122.649 30.2416 123.044 29.0427 123.665 27.9583C124.304 26.7415 125.123 25.6274 126.095 24.6535C126.954 23.7819 127.908 23.0093 128.941 22.3504C129.808 21.7884 130.745 21.3431 131.73 21.0262C132.475 20.7696 133.255 20.6261 134.044 20.6001C134.437 20.5943 134.828 20.6566 135.201 20.7844C135.526 20.9061 135.84 21.0564 136.138 21.2335C136.47 21.4135 136.78 21.6297 137.064 21.8783C137.289 21.4487 137.669 21.1197 138.128 20.9571C138.569 20.7707 139.05 20.6956 139.528 20.7383C139.92 20.7692 140.286 20.9509 140.546 21.245C140.778 21.5329 140.743 21.9129 140.465 22.3965C140.188 22.8801 139.829 23.6632 139.401 24.4923C138.973 25.3214 138.533 26.1735 138.07 27.0371C137.607 27.9008 137.179 28.7068 136.763 29.4668C136.469 30.0423 136.14 30.5998 135.779 31.1365C135.571 31.528 135.49 31.7929 135.548 31.9541C135.606 32.1153 135.745 32.1844 135.999 32.1729C136.299 32.1357 136.587 32.0334 136.844 31.8735C137.199 31.6763 137.522 31.428 137.804 31.1365C138.406 30.5032 138.892 29.985 139.262 29.628C139.709 29.1792 140.111 28.6895 140.465 28.1656ZM132.644 29.6511C133.603 28.4912 134.318 27.1523 134.75 25.7129C134.9 25.213 134.962 24.691 134.935 24.1698C134.93 23.9825 134.886 23.7981 134.804 23.6293C134.722 23.4605 134.605 23.311 134.46 23.1911C134.293 23.0775 134.103 23.0022 133.903 22.9703C133.702 22.9385 133.498 22.951 133.303 23.0068C132.793 23.1253 132.307 23.3319 131.869 23.6171C131.296 23.9863 130.761 24.4105 130.272 24.8838C129.695 25.4523 129.154 26.0561 128.652 26.6917C128.155 27.3545 127.709 28.0552 127.321 28.7874C126.995 29.3834 126.736 30.0127 126.546 30.6644C126.399 31.1648 126.348 31.6882 126.396 32.2074C126.406 32.3959 126.456 32.58 126.542 32.7485C126.627 32.917 126.748 33.066 126.893 33.1862C127.041 33.2933 127.212 33.3673 127.391 33.4031C127.571 33.4388 127.757 33.4356 127.935 33.3935C128.452 33.2925 128.946 33.0973 129.393 32.8177C129.981 32.4514 130.528 32.0229 131.024 31.5395C131.614 30.9541 132.156 30.3226 132.644 29.6511Z" fill="#141414"/>
</g>
<defs>
<filter id="filter0_d_1_273" x="0" y="0" width="148" height="46" filterUnits="userSpaceOnUse" color-interpolation-filters="sRGB">
<feFlood flood-opacity="0" result="BackgroundImageFix"/>
<feColorMatrix in="SourceAlpha" type="matrix" values="0 0 0 0 0 0 0 0 0 0 0 0 0 0 0 0 0 0 127 0" result="hardAlpha"/>
<feOffset dy="4"/>
<feGaussianBlur stdDeviation="2"/>
<feComposite in2="hardAlpha" operator="out"/>
<feColorMatrix type="matrix" values="0 0 0 0 0 0 0 0 0 0 0 0 0 0 0 0 0 0 0.25 0"/>
<feBlend mode="normal" in2="BackgroundImageFix" result="effect1_dropShadow_1_273"/>
<feBlend mode="normal" in="SourceGraphic" in2="effect1_dropShadow_1_273" result="shape"/>
</filter>
<clipPath id="clip0_1_273">
<rect width="140" height="38" fill="white" transform="translate(4)"/>
</clipPath>
</defs>
</svg>
